custom-analysis
version=1
nRows=6
nColumns=98
inDegrees=no

This file contains tibia displacement and acting force.

Units are S.I. units (seconds, meters, Newtons, ...)
Angles are in degrees.

endheader
time	APT	SIT	knee_angle	aACL_R_force	pACL_R_force	aPCL_R_force	pPCL_R_force	aMCL_R_force	mMCL_R_force	pMCL_R_force	aLCL_R_force	mLCL_R_force	pLCL_R_force	aPCL_L_force	pPCL_L_force	aMCL_L_force	aLCL_L_force	aACL_R_length	pACL_R_length	aPCL_R_length	pPCL_R_length	aMCL_R_length	mMCL_R_length	pMCL_R_length	aLCL_R_length	mLCL_R_length	pLCL_R_length	aPCL_L_length	pPCL_L_length	aMCL_L_length	aLCL_L_length	aACL_R_strain	pACL_R_strain	aPCL_R_strain	pPCL_R_strain	aMCL_R_strain	mMCL_R_strain	pMCL_R_strain	aLCL_R_strain	mLCL_R_strain	pLCL_R_strain	aPCL_L_strain	pPCL_L_strain	aMCL_L_strain	aLCL_L_strain	femur_lat_meniscii_r.femur_lat_r.force.X	femur_lat_meniscii_r.femur_lat_r.force.Y	femur_lat_meniscii_r.femur_lat_r.force.Z	femur_lat_meniscii_r.femur_lat_r.torque.X	femur_lat_meniscii_r.femur_lat_r.torque.Y	femur_lat_meniscii_r.femur_lat_r.torque.Z	femur_lat_meniscii_r.meniscus_lat_r.force.X	femur_lat_meniscii_r.meniscus_lat_r.force.Y	femur_lat_meniscii_r.meniscus_lat_r.force.Z	femur_lat_meniscii_r.meniscus_lat_r.torque.X	femur_lat_meniscii_r.meniscus_lat_r.torque.Y	femur_lat_meniscii_r.meniscus_lat_r.torque.Z	femur_med_meniscii_r.femur_med_r.force.X	femur_med_meniscii_r.femur_med_r.force.Y	femur_med_meniscii_r.femur_med_r.force.Z	femur_med_meniscii_r.femur_med_r.torque.X	femur_med_meniscii_r.femur_med_r.torque.Y	femur_med_meniscii_r.femur_med_r.torque.Z	femur_med_meniscii_r.meniscus_med_r.force.X	femur_med_meniscii_r.meniscus_med_r.force.Y	femur_med_meniscii_r.meniscus_med_r.force.Z	femur_med_meniscii_r.meniscus_med_r.torque.X	femur_med_meniscii_r.meniscus_med_r.torque.Y	femur_med_meniscii_r.meniscus_med_r.torque.Z	femur_med_tibia_r.tibia_upper_r.force.X	femur_med_tibia_r.tibia_upper_r.force.Y	femur_med_tibia_r.tibia_upper_r.force.Z	femur_med_tibia_r.tibia_upper_r.torque.X	femur_med_tibia_r.tibia_upper_r.torque.Y	femur_med_tibia_r.tibia_upper_r.torque.Z	femur_med_tibia_r.femur_med_r.force.X	femur_med_tibia_r.femur_med_r.force.Y	femur_med_tibia_r.femur_med_r.force.Z	femur_med_tibia_r.femur_med_r.torque.X	femur_med_tibia_r.femur_med_r.torque.Y	femur_med_tibia_r.femur_med_r.torque.Z	femur_lat_tibia_r.tibia_upper_r.force.X	femur_lat_tibia_r.tibia_upper_r.force.Y	femur_lat_tibia_r.tibia_upper_r.force.Z	femur_lat_tibia_r.tibia_upper_r.torque.X	femur_lat_tibia_r.tibia_upper_r.torque.Y	femur_lat_tibia_r.tibia_upper_r.torque.Z	femur_lat_tibia_r.femur_lat_r.force.X	femur_lat_tibia_r.femur_lat_r.force.Y	femur_lat_tibia_r.femur_lat_r.force.Z	femur_lat_tibia_r.femur_lat_r.torque.X	femur_lat_tibia_r.femur_lat_r.torque.Y	femur_lat_tibia_r.femur_lat_r.torque.Z	femur_lat_meniscii_force_r	femur_med_meniscii_force_r	femur_lat_tibia_force_r	femur_med_tibia_force_r
      0.16368945	      0.01275833	      0.01715179	     56.47911799	     -3.95192950	      0.00000000	    571.82713678	    372.95234139	      0.00000000	      0.00000000	      0.00000000	      0.00000000	      0.00000000	      0.00000000	      0.00000000	      0.00000000	      0.00000001	      0.00000000	      0.03115980	      0.02387551	      0.03491124	      0.03241718	      0.05950296	      0.05920827	      0.05632655	      0.05252337	      0.04781347	      0.04294866	      0.01525851	      0.01651186	      0.06550154	      0.04489616	      0.00497656	     -0.04721655	      0.12271771	      0.08462917	     -0.00873004	     -0.00978758	     -0.04089098	     -0.06170070	     -0.15101812	     -0.17947179	      0.00000079	     -0.32847694	      0.00000060	     -0.00000086	     90.60017881	    173.59923325	     19.43223452	    -12.04665099	      2.18402461	     35.30274132	    -90.60017881	   -173.59923325	    -19.43223452	      4.80638875	     -2.71783982	      3.22288286	     22.55201905	     20.73731782	     11.73012917	     -4.26000522	     -0.52014911	      9.05865676	    -22.55201905	    -20.73731782	    -11.73012917	     -0.23753396	      0.24647618	      0.07200413	   -761.90974524	   -700.49826311	    221.48287511	    -16.22747847	     17.19747714	     -1.45616735	    761.90974524	    700.49826311	   -221.48287511	    102.79802510	    -13.82476936	    309.92931246	      0.00000000	      0.00000000	      0.00000000	      0.00000000	      0.00000000	      0.00000000	      0.00000000	      0.00000000	      0.00000000	      0.00000000	      0.00000000	      0.00000000	    196.78083729	     32.80588124	      0.00000000	   1058.42285523
      0.16435661	      0.01280223	      0.01727968	     56.83915888	     -3.94007918	      0.00000000	    578.66133862	    376.16242540	      0.00000000	      0.00000000	      0.00000000	      0.00000000	      0.00000000	      0.00000000	      0.00000000	      0.00000000	      0.00000001	      0.00000000	      0.03115280	      0.02387197	      0.03495125	      0.03243982	      0.05953682	      0.05921436	      0.05631428	      0.05250140	      0.04777559	      0.04290212	      0.01525851	      0.01651186	      0.06550154	      0.04489616	      0.00475066	     -0.04735790	      0.12400437	      0.08538658	     -0.00816597	     -0.00968575	     -0.04110007	     -0.06209313	     -0.15169078	     -0.18036103	      0.00000079	     -0.32847694	      0.00000060	     -0.00000086	     92.76993871	    173.26042066	     18.84468669	    -11.79001550	      2.23413527	     36.17930963	    -92.76993871	   -173.26042066	    -18.84468669	      4.77616092	     -2.76260359	      3.20778736	     22.61526633	     20.22649265	     11.42757571	     -4.15013414	     -0.51770670	      9.08015228	    -22.61526633	    -20.22649265	    -11.42757571	     -0.23226305	      0.24844515	      0.06923329	   -768.85426531	   -698.58224044	    221.89205779	    -16.14713454	     17.32542328	     -1.42312788	    768.85426531	    698.58224044	   -221.89205779	    102.90235381	    -13.93580087	    312.70083236	      0.00000000	      0.00000000	      0.00000000	      0.00000000	      0.00000000	      0.00000000	      0.00000000	      0.00000000	      0.00000000	      0.00000000	      0.00000000	      0.00000000	    197.43494400	     32.42145528	      0.00000000	   1062.25708435
      0.16465271	      0.01282143	      0.01733658	     56.99897347	     -4.03054249	      0.00000000	    581.70807262	    377.68010172	      0.00000000	      0.00000000	      0.00000000	      0.00000000	      0.00000000	      0.00000000	      0.00000000	      0.00000000	      0.00000001	      0.00000000	      0.03114967	      0.02387042	      0.03496888	      0.03244982	      0.05955179	      0.05921709	      0.05630896	      0.05249142	      0.04775860	      0.04288135	      0.01525851	      0.01651186	      0.06550154	      0.04489616	      0.00464970	     -0.04741992	      0.12457137	      0.08572128	     -0.00791657	     -0.00964009	     -0.04119065	     -0.06227147	     -0.15199248	     -0.18075780	      0.00000079	     -0.32847694	      0.00000060	     -0.00000086	     94.92240795	    169.39650643	     17.06531595	    -10.93001875	      2.27502747	     37.10273171	    -94.92240795	   -169.39650643	    -17.06531595	      4.59753379	     -2.77161011	      3.04970900	     22.75905540	     20.19630602	     11.35169984	     -4.12000700	     -0.51980816	      9.13541424	    -22.75905540	    -20.19630602	    -11.35169984	     -0.23353305	      0.25115058	      0.07099108	   -772.27670177	   -698.48142910	    222.59140811	    -16.13062097	     17.40080908	     -1.39260401	    772.27670177	    698.48142910	   -222.59140811	    103.16895416	    -13.99355061	    314.06228089	      0.00000000	      0.00000000	      0.00000000	      0.00000000	      0.00000000	      0.00000000	      0.00000000	      0.00000000	      0.00000000	      0.00000000	      0.00000000	      0.00000000	    194.92733243	     32.47655260	      0.00000000	   1064.81667242
      0.16511878	      0.01285113	      0.01742630	     57.25052393	     -4.23794931	      0.00000000	    586.58605412	    380.31948172	      0.00000000	      0.00000000	      0.00000000	      0.00000000	      0.00000000	      0.00000000	      0.00000000	      0.00000000	      0.00000001	      0.00000000	      0.03114457	      0.02386787	      0.03499657	      0.03246561	      0.05957529	      0.05922143	      0.05630076	      0.05247544	      0.04773166	      0.04284856	      0.01525851	      0.01651186	      0.06550154	      0.04489616	      0.00448523	     -0.04752159	      0.12546184	      0.08624957	     -0.00752515	     -0.00956746	     -0.04133012	     -0.06255695	     -0.15247084	     -0.18138419	      0.00000079	     -0.32847694	      0.00000060	     -0.00000086	     98.29170735	    166.14128083	     16.70402550	    -10.68587284	      2.36272595	     38.52209943	    -98.29170735	   -166.14128083	    -16.70402550	      4.48805963	     -2.85919555	      2.88574793	     23.17492012	     20.18525688	     11.23047496	     -4.07036920	     -0.52901621	      9.30293977	    -23.17492012	    -20.18525688	    -11.23047496	     -0.23699144	      0.26107612	      0.06720517	   -777.95740966	   -698.83193570	    223.79890599	    -16.11843146	     17.52484580	     -1.33754063	    777.95740966	    698.83193570	   -223.79890599	    103.64444939	    -14.08793686	    316.32270822	      0.00000000	      0.00000000	      0.00000000	      0.00000000	      0.00000000	      0.00000000	      0.00000000	      0.00000000	      0.00000000	      0.00000000	      0.00000000	      0.00000000	    193.76070138	     32.72071340	      0.00000000	   1069.42496507
      0.16529435	      0.01286212	      0.01746013	     57.34527750	     -4.34574430	      0.00000000	    588.46445811	    381.42280418	      0.00000000	      0.00000000	      0.00000000	      0.00000000	      0.00000000	      0.00000000	      0.00000000	      0.00000000	      0.00000001	      0.00000000	      0.03114257	      0.02386687	      0.03500701	      0.03247160	      0.05958413	      0.05922309	      0.05629775	      0.05246935	      0.04772146	      0.04283620	      0.01525851	      0.01651186	      0.06550154	      0.04489616	      0.00442087	     -0.04756171	      0.12579760	      0.08645001	     -0.00737786	     -0.00953963	     -0.04138144	     -0.06266574	     -0.15265189	     -0.18162040	      0.00000079	     -0.32847694	      0.00000060	     -0.00000086	     98.57392640	    166.35681574	     16.90538727	    -10.77512847	      2.36896252	     38.62986312	    -98.57392640	   -166.35681574	    -16.90538727	      4.49988473	     -2.87085572	      2.89942919	     23.19716647	     20.10067577	     11.22646220	     -4.07134217	     -0.52799762	      9.31092426	    -23.19716647	    -20.10067577	    -11.22646220	     -0.23483472	      0.25967757	      0.06732105	   -780.17716453	   -699.26838968	    223.62037838	    -16.10172210	     17.55559364	     -1.30899017	    780.17716453	    699.26838968	   -223.62037838	    103.56723651	    -14.12072148	    317.20370001	      0.00000000	      0.00000000	      0.00000000	      0.00000000	      0.00000000	      0.00000000	      0.00000000	      0.00000000	      0.00000000	      0.00000000	      0.00000000	      0.00000000	    194.10615968	     32.68301014	      0.00000000	   1071.28836570
      0.16561671	      0.01288203	      0.01752230	     57.51924463	     -4.45441122	      0.00000000	    591.87354887	    383.33515909	      0.00000000	      0.00000000	      0.00000000	      0.00000000	      0.00000000	      0.00000000	      0.00000000	      0.00000000	      0.00000001	      0.00000000	      0.03113882	      0.02386497	      0.03502621	      0.03248267	      0.05960036	      0.05922620	      0.05629233	      0.05245808	      0.04770269	      0.04281349	      0.01525851	      0.01651186	      0.06550154	      0.04489616	      0.00429989	     -0.04763725	      0.12641479	      0.08682031	     -0.00710742	     -0.00948763	     -0.04147369	     -0.06286699	     -0.15298522	     -0.18205417	      0.00000079	     -0.32847694	      0.00000060	     -0.00000086	     99.10145303	    166.54881657	     17.31686004	    -10.94834567	      2.38497475	     38.83729644	    -99.10145303	   -166.54881657	    -17.31686004	      4.51444926	     -2.89773670	      2.91440543	     23.35934930	     20.04654901	     11.14247639	     -4.03842060	     -0.53038092	      9.37401698	    -23.35934930	    -20.04654901	    -11.14247639	     -0.23582601	      0.26277239	      0.06807144	   -784.11142100	   -698.99913505	    223.75775359	    -16.07030911	     17.62241333	     -1.28382564	    784.11142100	    698.99913505	   -223.75775359	    103.60275553	    -14.18144526	    318.77192832	      0.00000000	      0.00000000	      0.00000000	      0.00000000	      0.00000000	      0.00000000	      0.00000000	      0.00000000	      0.00000000	      0.00000000	      0.00000000	      0.00000000	    194.57512671	     32.73649504	      0.00000000	   1074.01026236
